<svg id="Capa_1" enable-background="new 0 0 512 512" height="512" viewBox="0 0 512 512" width="512" xmlns="http://www.w3.org/2000/svg"><g><path d="m428.304 512h-344.608c-17.723 0-32.09-14.367-32.09-32.09v-447.82c.001-17.723 14.368-32.09 32.09-32.09h344.607c17.723 0 32.09 14.367 32.09 32.09v447.82c0 17.723-14.367 32.09-32.089 32.09z" fill="#fd4755"/><path d="m419.982 385.931h-327.964c-2.204 0-3.99-1.786-3.99-3.99v-342.239c0-2.204 1.786-3.99 3.99-3.99h327.963c2.204 0 3.99 1.786 3.99 3.99v342.24c.001 2.203-1.786 3.989-3.989 3.989z" fill="#f5f8f9"/><g fill="#fff"><path d="m167.687 421.41c-.026-.07-.054-.141-.082-.21-1.378-3.35-4.608-5.514-8.23-5.514-.003 0-.006 0-.009 0-3.627.004-6.856 2.175-8.227 5.531-.023.057-.046.116-.068.173l-19.423 50.986c-1.519 3.988.482 8.452 4.47 9.971 3.986 1.518 8.452-.482 9.971-4.47l2.942-7.722h20.54l2.906 7.7c1.168 3.094 4.108 5 7.229 5 .906 0 1.829-.161 2.727-.5 3.992-1.507 6.007-5.965 4.5-9.957zm-12.772 33.292 4.431-11.631 4.39 11.631z"/><path d="m223.813 467.356c-.015 0-.03 0-.044 0-3.522.02-7.233.034-10.343.04v-43.984c0-4.268-3.459-7.726-7.726-7.726-4.268 0-7.726 3.459-7.726 7.726v51.67c0 3.762 2.708 6.976 6.414 7.615.559.096.93.16 6.704.16 2.787 0 6.832-.015 12.764-.048 4.268-.024 7.707-3.503 7.683-7.77-.025-4.252-3.479-7.683-7.726-7.683z"/><path d="m269.695 431.375c4.268 0 7.726-3.459 7.726-7.726s-3.459-7.726-7.726-7.726h-21.595c-4.268 0-7.726 3.459-7.726 7.726v51.241c0 4.268 3.459 7.726 7.726 7.726h21.596c4.268 0 7.726-3.459 7.726-7.726s-3.459-7.726-7.726-7.726h-13.869v-10.168h12.277c4.268 0 7.726-3.459 7.726-7.726s-3.459-7.726-7.726-7.726h-12.277v-10.168h13.868z"/><path d="m373.133 415.686h-28.565c-4.268 0-7.726 3.459-7.726 7.726s3.459 7.726 7.726 7.726h6.499v43.988c0 4.268 3.459 7.726 7.726 7.726s7.726-3.459 7.726-7.726v-43.988h6.614c4.268 0 7.726-3.459 7.726-7.726s-3.459-7.726-7.726-7.726z"/><path d="m329.238 436.852c0-11.671-9.838-21.166-21.93-21.166h-13.745c-.003 0-.006 0-.008 0-.003 0-.005 0-.008 0-4.268 0-7.726 3.459-7.726 7.726v51.714c0 4.268 3.459 7.726 7.726 7.726s7.726-3.459 7.726-7.726v-11.296l14.439 16.402c1.527 1.734 3.66 2.621 5.803 2.621 1.813 0 3.634-.635 5.103-1.927 3.202-2.82 3.513-7.702.694-10.905l-11.9-13.518c8.089-3.119 13.826-10.744 13.826-19.651zm-21.929-5.713c3.511 0 6.477 2.617 6.477 5.713 0 3.098-2.966 5.714-6.477 5.714-1.426 0-3.688.008-5.966.018-.011-2.199-.019-4.367-.019-5.732 0-1.171-.005-3.4-.011-5.713z"/></g><path d="m190.231 284.172h131.538c13.874 0 22.566-14.992 15.67-27.029l-65.769-114.794c-6.937-12.108-24.403-12.108-31.34 0l-65.769 114.794c-6.896 12.037 1.796 27.029 15.67 27.029z" fill="#fd4755"/><path d="m337.439 257.144-65.769-114.795c-5.437-9.49-17.342-11.539-25.576-6.152 16.629 30.329 33.259 60.659 49.888 90.988 9.404 17.152-2.657 38.18-22.211 38.722-33.809.937-67.619 1.874-101.428 2.811 1.247 8.351 8.34 15.453 17.889 15.453h131.538c13.873.002 22.565-14.991 15.669-27.027z" fill="#fb2b3a"/><g><g><path d="m256 236.473c-4.268 0-7.726-3.459-7.726-7.726v-48.979c0-4.268 3.459-7.726 7.726-7.726s7.726 3.459 7.726 7.726v48.979c0 4.267-3.458 7.726-7.726 7.726z" fill="#fff"/></g><g><circle cx="256" cy="253.755" fill="#fff" r="7.77"/></g></g></g></svg>