<svg id="Capa_1" enable-background="new 0 0 512 512" height="512" viewBox="0 0 512 512" width="512" xmlns="http://www.w3.org/2000/svg"><g><path d="m511.985 172.5c0-.938-.176-1.867-.519-2.74l-61.047-155.509c-3.427-8.657-11.644-14.251-20.934-14.251-9.3 0-17.515 5.599-20.928 14.263-.249.633-.484 1.229-.689 1.751l-60.364 153.746c-.343.873-.519 1.803-.519 2.741l.01 332c0 4.142 3.358 7.5 7.5 7.5h150c1.989 0 3.896-.79 5.304-2.197 1.406-1.407 2.196-3.314 2.196-5.304zm-37.497 17.955-18.483-18.483c-14.623-14.622-38.411-14.62-53.034 0l-18.482 18.483-18.483-18.483c-.766-.766-1.574-1.484-2.399-2.179 5.914-15.064 22.969-58.509 37.215-94.792h57.332l37.214 94.796c-.824.694-1.631 1.411-2.396 2.176zm-51.998-170.635c.008-.02.017-.04.024-.06 1.139-2.892 3.875-4.76 6.971-4.76 3.097 0 5.839 1.873 6.979 4.752l15.8 40.248h-45.554c8.794-22.4 15.445-39.335 15.78-40.18zm-60.504 169.346 15.003 15.002.004 90.404c0 4.142 3.358 7.5 7.5 7.5 4.143 0 7.5-3.358 7.5-7.5l-.004-90.403 21.59-21.59c8.771-8.773 23.048-8.772 31.819 0l21.591 21.59.009 292.831h-75l-.006-172.429c0-4.143-3.358-7.5-7.5-7.5-4.143 0-7.5 3.358-7.5 7.5l.006 172.429h-15.003zm120.012 307.834-.009-292.832 14.997-14.998.009 307.83z"/><path d="m147.873 347.071c-4.142 0-7.5 3.358-7.5 7.5v47.955c0 1.739-.886 3.312-2.312 4.103-2.692 1.496-5.935-1.544-6.071-1.674-2.938-2.92-7.687-2.904-10.607.034s-2.904 7.687.034 10.607c2.908 2.921 8.506 6.507 15.049 6.507 2.83 0 5.836-.671 8.875-2.358 6.188-3.435 10.032-10.033 10.032-17.218v-47.955c0-4.143-3.358-7.501-7.5-7.501z"/><path d="m257.872 422.071c.033 0 16.056-.071 20.473-.071 13.041 0 23.65-10.609 23.65-23.65 0-7.425-3.44-14.063-8.811-18.402 2.164-3.334 3.423-7.308 3.423-11.57 0-11.748-9.559-21.306-21.307-21.306h-17.429c-4.143 0-7.5 3.358-7.5 7.5v60c0 1.995.795 3.908 2.209 5.315 1.406 1.399 3.309 2.184 5.292 2.184zm7.5-60h9.929c3.478 0 6.307 2.829 6.307 6.306s-2.829 6.306-6.307 6.306c-.166 0-.332.005-.495.016h-9.434zm0 27.629h12.973c4.77 0 8.65 3.88 8.65 8.65s-3.881 8.65-8.65 8.65c-2.389 0-8.159.021-12.973.04z"/><path d="m202.872 422.071c20.678 0 37.5-16.822 37.5-37.5s-16.822-37.5-37.5-37.5c-20.677 0-37.499 16.822-37.499 37.5s16.822 37.5 37.499 37.5zm0-60c12.406 0 22.5 10.093 22.5 22.5s-10.094 22.5-22.5 22.5-22.499-10.093-22.499-22.5 10.093-22.5 22.499-22.5z"/><path d="m324.495 317.071h-227.759c-4.143 0-7.5 3.358-7.5 7.5v119.929c0 4.142 3.357 7.5 7.5 7.5h194.652l27.803 27.803c1.436 1.435 3.354 2.197 5.306 2.197.966 0 1.94-.187 2.868-.571 2.803-1.161 4.63-3.896 4.63-6.929v-149.929c0-4.142-3.357-7.5-7.5-7.5zm-7.5 139.323-17.196-17.197c-1.407-1.407-3.314-2.197-5.304-2.197h-190.259v-104.929h212.759z"/><path d="m63.402 257.071h-17.949c-4.143 0-7.5 3.358-7.5 7.5s3.357 7.5 7.5 7.5h9.582c-1.914 7.951-7.174 15-17.53 15-12.406 0-22.5-10.093-22.5-22.5s10.094-22.5 22.5-22.5c4.51 0 8.858 1.327 12.575 3.838 3.433 2.319 8.095 1.416 10.413-2.016s1.416-8.095-2.017-10.414c-6.205-4.192-13.458-6.409-20.972-6.409-20.678 0-37.5 16.822-37.5 37.5s16.822 37.5 37.5 37.5c19.664 0 33.397-15.42 33.397-37.5.001-4.141-3.356-7.499-7.499-7.499z"/><path d="m117.099 302.071c20.678 0 37.5-16.822 37.5-37.5s-16.822-37.5-37.5-37.5-37.5 16.822-37.5 37.5 16.822 37.5 37.5 37.5zm0-60c12.406 0 22.5 10.093 22.5 22.5s-10.094 22.5-22.5 22.5-22.5-10.093-22.5-22.5 10.093-22.5 22.5-22.5z"/><path d="m199.795 302.071c20.678 0 37.5-16.822 37.5-37.5s-16.822-37.5-37.5-37.5-37.5 16.822-37.5 37.5 16.822 37.5 37.5 37.5zm0-60c12.406 0 22.5 10.093 22.5 22.5s-10.094 22.5-22.5 22.5-22.5-10.093-22.5-22.5 10.094-22.5 22.5-22.5z"/><path d="m249.326 299.894c1.404 1.395 3.304 2.177 5.283 2.177.526-.002 12.286-.047 16.986-.129 17.614-.308 30.399-15.651 30.399-36.483 0-21.899-12.464-36.612-31.014-36.612h-16.49c-1.991 0-3.901.792-5.309 2.202-1.406 1.41-2.195 3.321-2.191 5.313v57.265c0 .498.051.984.144 1.455.124 1.811.895 3.525 2.192 4.812zm21.655-56.048c15.241 0 16.014 18.003 16.014 21.612 0 10.559-4.843 21.297-15.662 21.485-2.129.038-5.853.067-9.249.089-.022-6.869-.067-36.038-.079-43.187h8.976z"/></g></svg>